PathFileType	3	(X/Y/Z)	D:\minhoCalibration\240510\subject2_KPNP\preferred\preferred14.trc
DataRate	CameraRate	NumFrames	NumMarkers	Units	OrigDataRate	OrigDataStartFrame	OrigNumFrames
200.0	200.0	12	10	mm	200.0	482	191	
Frame#	Time	Left_Ankle_Outer1			Left_Ankle_Inner1			Left_Knee_Outer1			Left_Knee_Inner1			Left_Wrist1			Right_Wrist1			Right_Knee_Inner1			Right_Knee_Outer1			Right_Ankle_Inner1			Right_Ankle_Outer1			
		X1	Y1	Z1	X2	Y2	Z2	X3	Y3	Z3	X4	Y4	Z4	X5	Y5	Z5	X6	Y6	Z6	X7	Y7	Z7	X8	Y8	Z8	X9	Y9	Z9	X10	Y10	Z10	
482	2.4	-661.41467	91.564728	-733.70325	-664.17218	94.994072	-678.41296	-499.26035	508.95422	-768.29285	-530.72528	493.92532	-677.78546	-487.69214	977.43243	-834.75958	-692.07404	1066.5562	-575.09558	-615.50348	565.20172	-435.3613	-691.11865	607.21686	-400.38461	-727.58563	177.82083	-499.47958	-818.62378	197.34009	-458.88168
483	2.405	-661.47858	91.373848	-733.80322	-665.90228	93.16787	-681.82166	-498.90344	508.80157	-768.13239	-531.05328	493.79599	-677.79468	-485.3812	978.9928	-832.49158	-695.1051	1064.6504	-576.35278	-620.81921	561.21429	-441.70459	-697.7605	603.23322	-406.31186	-733.32849	174.98184	-513.96936	-825.04761	193.772	-476.11716
484	2.41	-661.60388	91.121681	-733.82837	-663.04382	95.123093	-677.3363	-498.39563	508.72629	-767.86823	-530.87427	493.71091	-677.57025	-483.86066	980.12469	-830.75232	-698.13568	1062.7705	-577.72681	-626.78088	557.30487	-448.72546	-703.17126	598.23578	-416.01102	-739.01898	172.35414	-528.35999	-831.40247	191.83287	-491.74387
485	2.415	-661.70129	90.931076	-733.86865	-663.64484	94.680008	-677.92572	-497.77963	508.444	-767.4729	-530.52313	493.51031	-677.16516	-483.04984	980.71008	-829.7923	-701.1239	1060.8192	-579.16998	-632.31531	553.67914	-455.57178	-708.63885	594.11188	-424.25317	-745.13068	170.16965	-542.50916	-837.63159	189.30298	-508.17926
486	2.42	-661.54846	90.31144	-733.18213	-663.68719	94.526527	-677.68268	-497.10593	508.16034	-766.99731	-530.24109	493.30164	-676.89227	-481.88226	981.49774	-828.59399	-703.84882	1058.8805	-580.73334	-637.65942	550.16937	-462.41199	-714.93988	590.68829	-430.72473	-750.74518	168.09305	-556.71588	-844.06073	186.4651	-525.29407
487	2.425	-661.55524	90.149666	-732.98328	-664.0614	94.161568	-677.63782	-496.28253	507.84915	-766.40723	-529.98083	493.05533	-676.54541	-480.62442	982.26123	-826.93811	-706.78729	1056.8074	-582.18842	-642.96912	546.78754	-469.23239	-721.64825	587.80536	-435.5322	-756.53802	166.2747	-570.48578	-850.3053	184.88957	-540.72491
488	2.43	-661.48895	90.050873	-732.75073	-665.11743	92.276024	-679.91223	-495.36304	507.51602	-765.76361	-529.65125	492.77042	-676.06262	-480.27188	982.40576	-826.08521	-709.90131	1054.9211	-583.75952	-648.20618	543.50635	-475.98639	-726.68073	584.2771	-443.35916	-762.31671	164.21095	-584.72491	-855.90973	183.30426	-556.16913
489	2.435	-661.36566	89.961311	-732.47845	-663.86267	93.729553	-677.41467	-494.49625	507.20334	-765.10785	-529.29889	492.46942	-675.52167	-479.83066	982.66125	-824.88452	-712.74933	1053.006	-585.341	-652.61206	540.57776	-482.50043	-732.38275	580.61865	-450.39069	-767.96344	162.72067	-598.07739	-862.59839	182.35223	-572.64117
490	2.44	-661.29999	89.867584	-732.33453	-663.3819	93.763222	-676.11902	-493.61823	507.01135	-764.35889	-529.08612	492.36896	-675.20239	-479.05783	983.07257	-823.80792	-715.65881	1051.0499	-586.99524	-657.37769	537.17004	-488.72211	-735.92889	575.52466	-462.86267	-773.31085	161.46289	-611.02692	-868.03149	181.5036	-586.30969
491	2.445	-661.21332	89.900406	-732.22748	-663.84906	93.641769	-677.11969	-492.93625	506.77328	-763.60394	-528.90424	492.31955	-674.90082	-478.64691	983.27509	-822.5824	-718.59589	1049.109	-588.69073	-662.02698	534.07886	-495.03949	-743.21149	574.08801	-464.48489	-778.96588	160.18044	-623.85852	-873.9588	180.80226	-601.35095
492	2.45	-661.14136	89.92485	-732.18909	-663.88501	93.580147	-677.04541	-492.26749	506.72864	-762.89813	-528.90216	492.32373	-674.60272	-478.17661	983.52325	-821.4751	-721.62335	1047.0945	-590.34503	-667.45911	531.04242	-500.95206	-747.54803	570.06812	-474.27917	-783.74103	158.86073	-636.41736	-880.43115	180.45543	-616.59161
493	2.455	-661.15179	90.15255	-732.53375	-663.84253	93.740936	-676.78699	-491.65158	506.70969	-762.31097	-528.94464	492.38745	-674.42645	-477.8822	983.89569	-820.18103	-724.6347	1044.9904	-592.08521	-672.66522	528.323	-506.53769	-752.06323	566.19592	-483.66037	-785.15564	160.65739	-648.1778	-886.16589	180.25674	-631.2818
